<?xml version="1.0" encoding="UTF-8" ?>
<!DOCTYPE svg PUBLIC "-//W3C//DTD SVG 1.1//EN" "http://www.w3.org/Graphics/SVG/1.1/DTD/svg11.dtd">
<svg width="507pt" height="514pt" viewBox="0 0 507 514" version="1.1" xmlns="http://www.w3.org/2000/svg">
<g id="#e6f2e8ff">
<path fill="#e6f2e8" opacity="1.00" d=" M 176.84 367.65 C 179.43 367.79 182.31 367.00 184.65 368.45 C 185.04 369.68 185.14 371.20 184.30 372.28 C 181.94 373.17 179.35 372.69 176.89 372.78 C 176.87 371.06 176.85 369.35 176.84 367.65 Z" />
<path fill="#e6f2e8" opacity="1.00" d=" M 176.92 377.34 C 179.75 377.78 184.80 375.99 185.48 380.02 C 185.66 384.35 180.06 383.08 177.29 383.44 C 176.92 381.42 176.82 379.37 176.92 377.34 Z" />
</g>
<g id="#009752ff">
<path fill="#009752" opacity="1.00" d=" M 170.80 113.13 C 201.86 113.03 232.93 113.14 264.00 113.10 C 272.34 113.19 280.83 112.54 288.97 114.75 C 304.77 118.62 318.61 129.56 326.08 144.00 C 333.53 158.00 334.63 175.14 329.21 190.03 C 326.82 197.11 322.31 203.20 317.57 208.88 C 312.41 205.44 307.25 201.82 301.42 199.59 C 298.14 198.54 294.84 197.55 291.62 196.36 C 297.39 191.64 302.61 185.77 304.34 178.31 C 308.18 165.16 301.40 150.12 289.33 143.85 C 284.35 141.16 278.65 140.01 273.02 140.21 C 238.95 140.23 204.89 140.27 170.82 140.19 C 170.80 131.17 170.84 122.15 170.80 113.13 Z" />
<path fill="#009752" opacity="1.00" d=" M 199.62 158.37 C 206.25 156.54 213.19 156.89 220.00 156.88 C 237.66 156.88 255.33 156.89 272.99 156.88 C 277.52 156.72 282.43 157.92 285.45 161.53 C 290.26 166.73 289.93 175.80 284.55 180.49 C 281.77 183.23 277.83 184.29 274.01 184.19 C 252.65 184.20 231.28 184.15 209.92 184.21 C 204.01 184.08 198.60 189.06 198.18 194.94 C 197.46 201.51 203.53 207.56 210.01 207.45 C 230.68 207.52 251.35 207.43 272.02 207.50 C 287.82 207.63 303.43 214.25 314.55 225.48 C 325.32 236.13 331.88 250.91 332.53 266.05 C 333.27 280.30 328.77 294.75 320.06 306.05 C 310.53 318.74 295.90 327.49 280.17 329.73 C 274.82 330.60 269.40 330.42 264.00 330.42 C 232.94 330.41 201.88 330.43 170.81 330.42 C 170.83 321.38 170.78 312.34 170.84 303.30 C 204.24 303.21 237.64 303.29 271.03 303.26 C 281.91 303.16 292.61 297.81 298.90 288.88 C 306.93 278.02 307.56 262.30 300.19 250.94 C 294.14 240.92 282.65 234.66 270.99 234.64 C 250.64 234.65 230.30 234.67 209.95 234.64 C 199.55 234.77 189.33 230.25 182.09 222.84 C 173.43 214.08 169.09 201.02 171.56 188.86 C 174.15 174.47 185.52 162.19 199.62 158.37 Z" />
<path fill="#009752" opacity="1.00" d=" M 170.82 255.24 C 205.22 255.11 239.62 255.19 274.02 255.19 C 280.18 254.91 285.88 259.48 287.36 265.39 C 289.70 273.65 282.60 282.69 274.02 282.33 C 239.62 282.35 205.23 282.37 170.83 282.32 C 170.81 273.29 170.81 264.26 170.82 255.24 Z" />
<path fill="#009752" opacity="1.00" d=" M 172.27 363.21 C 176.83 363.22 181.49 362.78 185.98 363.73 C 191.14 365.52 191.14 374.21 185.38 375.18 C 191.50 375.87 191.66 385.39 186.19 387.15 C 181.64 388.10 176.91 387.76 172.28 387.74 C 172.25 379.56 172.28 371.38 172.27 363.21 M 176.84 367.65 C 176.85 369.35 176.87 371.06 176.89 372.78 C 179.35 372.69 181.94 373.17 184.30 372.28 C 185.14 371.20 185.04 369.68 184.65 368.45 C 182.31 367.00 179.43 367.79 176.84 367.65 M 176.92 377.34 C 176.82 379.37 176.92 381.42 177.29 383.44 C 180.06 383.08 185.66 384.35 185.48 380.02 C 184.80 375.99 179.75 377.78 176.92 377.34 Z" />
<path fill="#009752" opacity="1.00" d=" M 194.28 363.17 C 195.80 363.19 197.32 363.21 198.84 363.24 C 199.09 369.61 198.14 376.10 199.62 382.38 C 202.11 383.53 205.75 384.09 207.23 381.13 C 208.00 375.21 207.37 369.21 207.58 363.26 C 209.12 363.23 210.66 363.22 212.21 363.21 C 212.09 369.19 212.57 375.20 211.97 381.15 C 211.18 388.76 199.62 390.29 195.67 384.44 C 194.20 382.26 194.32 379.51 194.25 377.01 C 194.26 372.39 194.29 367.78 194.28 363.17 Z" />
<path fill="#009752" opacity="1.00" d=" M 221.44 363.62 C 225.59 361.96 230.03 363.32 233.86 365.16 C 233.27 366.50 232.66 367.82 232.06 369.16 C 229.37 368.02 226.42 366.74 223.46 367.66 C 221.93 368.11 221.20 369.57 221.58 371.11 C 224.64 374.16 230.03 372.73 232.97 376.07 C 235.44 379.32 234.66 384.94 230.75 386.74 C 225.93 389.03 220.12 387.91 215.74 385.13 C 216.41 383.85 217.09 382.59 217.78 381.32 C 220.85 382.91 224.43 384.37 227.89 383.09 C 229.63 382.60 230.25 380.38 229.25 378.96 C 225.97 377.08 221.60 377.94 218.66 375.32 C 215.41 371.86 216.77 365.11 221.44 363.62 Z" />
<path fill="#009752" opacity="1.00" d=" M 238.09 363.06 C 239.69 363.06 241.29 363.07 242.90 363.09 C 243.04 371.34 243.19 379.60 243.06 387.87 C 241.38 387.92 239.70 387.98 238.02 388.05 C 237.88 379.72 238.14 371.39 238.09 363.06 Z" />
<path fill="#009752" opacity="1.00" d=" M 248.17 363.17 C 250.08 363.19 252.00 363.23 253.92 363.28 C 256.58 369.27 259.67 375.06 262.42 381.01 C 262.47 375.08 262.49 369.14 262.49 363.20 C 263.94 363.20 265.40 363.21 266.86 363.22 C 266.87 371.37 266.82 379.52 266.87 387.67 C 264.98 387.67 263.10 387.68 261.22 387.68 C 258.35 381.83 255.48 375.99 252.57 370.17 C 252.50 375.99 252.51 381.82 252.54 387.66 C 251.08 387.67 249.62 387.68 248.16 387.70 C 248.13 379.52 248.14 371.35 248.17 363.17 Z" />
<path fill="#009752" opacity="1.00" d=" M 272.31 363.20 C 277.79 363.09 283.27 363.25 288.75 363.23 C 288.73 364.69 288.71 366.15 288.70 367.61 C 284.83 367.62 280.97 367.62 277.10 367.62 C 277.10 369.52 277.11 371.43 277.13 373.34 C 280.37 373.32 283.62 373.31 286.87 373.34 C 286.86 374.79 286.85 376.25 286.85 377.72 C 283.60 377.73 280.35 377.73 277.11 377.71 C 277.10 379.56 277.11 381.42 277.13 383.29 C 280.99 383.29 284.86 383.31 288.73 383.30 C 288.73 384.76 288.74 386.22 288.75 387.69 C 283.26 387.59 277.78 387.94 272.29 387.70 C 272.35 379.54 272.34 371.37 272.31 363.20 Z" />
<path fill="#009752" opacity="1.00" d=" M 296.04 364.19 C 300.37 361.79 305.73 362.90 309.71 365.50 C 309.06 366.66 308.41 367.82 307.78 368.99 C 304.94 367.99 301.81 366.65 298.81 367.82 C 296.85 368.45 296.77 371.64 298.76 372.29 C 302.08 373.65 306.30 373.37 308.84 376.27 C 311.39 379.73 310.08 385.47 305.92 387.04 C 301.13 388.87 295.63 387.86 291.41 385.10 C 292.10 383.83 292.81 382.56 293.51 381.29 C 297.13 383.52 301.72 384.45 305.58 382.20 C 305.30 380.84 305.58 378.64 303.73 378.34 C 300.70 377.31 297.15 377.50 294.55 375.44 C 291.38 372.37 292.17 366.33 296.04 364.19 Z" />
<path fill="#009752" opacity="1.00" d=" M 317.29 364.20 C 321.58 361.74 326.72 363.10 330.87 365.16 C 330.29 366.51 329.70 367.86 329.11 369.21 C 326.48 368.02 323.58 366.75 320.65 367.66 C 319.00 368.01 318.18 369.50 318.62 371.12 C 321.69 374.17 327.07 372.74 330.05 376.07 C 332.56 379.35 331.67 384.94 327.77 386.75 C 322.92 389.02 317.13 387.91 312.73 385.11 C 313.44 383.84 314.16 382.57 314.89 381.30 C 318.10 383.04 322.22 384.69 325.65 382.64 C 327.14 381.83 326.40 379.95 326.52 378.63 C 322.58 377.46 317.44 377.87 314.79 374.16 C 313.33 370.86 313.77 366.01 317.29 364.20 Z" />
</g>
</svg>
